<svg xmlns="http://www.w3.org/2000/svg" fill="none" viewBox="0 0 250 250">
<path fill="#FFF" d="M239.27,199.98c-0.54-1.52-1.09-3.14-1.1-4.72c-0.26-24.85-0.39-49.7-0.66-74.55l0.09-21.85c-0.16-0.57-0.12-1.42-0.13-1.99
	c-0.13-6.47-0.09-12.94-0.34-19.4c-0.25-6.52-0.51-13.06-1.22-19.54c-0.61-5.51-4.2-9.15-8.92-11.77
	c-6.52-3.61-13.67-4.87-20.94-5.17c-13.15-0.55-26.32-1-39.48-1c-33.13,0.02-66.27,0.06-99.4,0.63c-12.28,0.21-24.72-1.57-36.87,2.2
	c-7.41,2.3-13.58,5.89-16.98,13.15c-2.61,5.56-3.09,11.54-2.93,17.57c0.57,21.99,1.25,43.98,1.78,65.97
	c0.33,13.56,0.45,27.13,0.66,40.7c0.07,4.18,0.56,8.41,0.05,12.52c-0.34,2.77-0.45,5.19,0.76,7.71c0.83,1.72,1.52,1.9,2.97,0.67
	c0.54-0.46,1.4-0.68,2.13-0.74c1.66-0.12,3.36,0.13,4.98-0.14c2.98-0.5,5.78-2.04,8.99-1.16c8.62,2.38,17.23,4.8,25.92,6.91
	c4.8,1.17,9.7,2.16,14.61,2.5c5.88,0.41,10.78-3.06,16-5.2c4.83-1.98,7.12-5.54,7.03-10.66c-0.02-1.15,0.24-1.85,0.85-2.24
	l1.94-0.01l0.47,0l8.03-0.04l0.47,0l8.03-0.04l0.47,0l3.11-0.02c-0.47,0.38-1.85,1.04-3.14,1.63l-0.48,0.22
	c-0.96,0.44-1.79,0.81-2.01,0.96c-1.13,0.76-3.51,1.3-6.09,1.82l-0.48,0.1c-3.07,0.62-6.33,1.22-8.1,2.15l-0.48,0.19l0.13,0
	c-0.24,0.15-0.45,0.31-0.61,0.48c-2.7,2.88-2.47,5.04,0,8.05c1.33,1.63,6.85,1.06,9,0.47c5.21-1.42,10.68-3.46,15.15-3.79
	c2.27-0.16,3.42-1.07,4.78,0.72c1.97,2.61,4.64,3.1,7.78,2.91c3.12-0.19,6.27,0.13,9.4,0.3c1.57,0.09,3.12,0.52,4.69,0.53
	c11.05,0.03,19.6,5.03,30.64,5c2.85-0.01,23.44-2.11,27.93-3.31c0.33-0.09,5.92-2.53,6.15-2.84c1.99-2.64,0.69-7.57-2.84-10.89
	c-1.49-1.4,1.21-4.25,2.03-4.11c6.15,1.03,12.24,2.31,17.66,5.67c2.33,1.44,4.61,2.8,4.05,6.19c-0.21,1.25,0.5,2.17,1.97,1.95
	C238.49,204.41,239.84,201.57,239.27,199.98z M234.62,185.27l-8.59-2.23l0.24-9.34l8.25,2.1
	C234.55,178.96,234.58,182.12,234.62,185.27z M234.03,86.16c-0.02,2.87-0.03,5.75,0,8.62c0,0.3-0.01,0.58-0.03,0.83l-5.64-1.56
	l0.25-9.38L234.03,86.16z M228.62,84.18l0.25-9.38l5.22,1.44c0,3.15-0.03,6.29-0.05,9.44L228.62,84.18z M233.93,96.08
	c-0.21,0.98-0.83,1.39-2.37,1.26c-0.98-0.09-2.2,0.39-3.01,1.01c-0.1,0.08-0.2,0.14-0.3,0.22l0.11-4.03L233.93,96.08z M228.15,84.05
	l-8.43-2.33l0.22-9.39l8.46,2.34L228.15,84.05z M217.61,101.02l-3.33-0.92c-0.39-0.54-0.32-1.31-0.32-2.06
	c-0.01-2.49-0.01-4.99-0.01-7.48l5.05,1.4l-0.21,9.16C218.4,101.09,218.01,101.06,217.61,101.02z M218.42,117.28l-0.09,3.82
	l-4.78-1.32c0.16-1.03,0.68-1.58,2.13-1.82C216.59,117.8,217.52,117.58,218.42,117.28z M213.95,90.06c0-3.15,0-6.3-0.01-9.46
	l5.29,1.46l-0.22,9.39L213.95,90.06z M213.93,80.11c-0.02-3.16-0.06-6.33-0.15-9.49l5.67,1.57l-0.22,9.39L213.93,80.11z
	 M213.77,70.13c-0.1-3.2-0.31-6.41-0.56-9.61l6.48,1.79l-0.22,9.39L213.77,70.13z M213.5,120.64l0.43,0l0-0.27l4.4,1.22l-0.22,9.39
	l-4.66-1.29l0-0.06l-0.24,0C213.32,126.64,213.45,123.64,213.5,120.64z M218.32,142.64l8.25,1.72l-0.26,9.82l-8.23-1.34
	L218.32,142.64z M218.33,142.16l0.24-10.56l8.27,2.29l-0.26,9.99L218.33,142.16z M218.58,131.11l0.22-9.39l8.3,2.3l-0.25,9.38
	L218.58,131.11z M218.81,121.23l0.09-4.12c0.97-0.36,1.88-0.82,2.66-1.41c1.69-1.28,3.39-1.76,5.15-1.74l0.65,0.18l-0.25,9.38
	L218.81,121.23z M219.27,101.13l0.21-9.05l8.4,2.32l-0.12,4.5C225.1,100.67,222.24,101.22,219.27,101.13z M219.49,91.59l0.22-9.39
	l8.43,2.33l-0.25,9.38L219.49,91.59z M219.7,61.82l-6.24-1.73l0-0.06l-0.29,0c-0.22-2.61-0.46-5.21-0.71-7.81
	c-0.09-0.99-0.18-1.7-0.31-2.24l7.77,2.15L219.7,61.82z M212.66,152.43l4.94,0.81l-0.2,8.76l-4.95-0.99
	C212.52,158.15,212.59,155.29,212.66,152.43z M212.67,151.95c0.08-3.48,0.17-6.96,0.25-10.44l4.92,1.03l-0.23,10.22L212.67,151.95z
	 M212.93,141.03c0.07-3.03,0.14-6.07,0.22-9.1c0.01-0.61,0.04-1.21,0.05-1.82l4.9,1.35l-0.24,10.59L212.93,141.03z M218.07,153.31
	l8.22,1.34l-0.24,9.08l-8.19-1.64L218.07,153.31z M234.49,171.72c0,1.2,0.01,2.39,0.02,3.59l-8.23-2.1l0.23-8.91l7.95,1.59
	C234.48,167.84,234.48,169.78,234.49,171.72z M234.47,165.41l-7.94-1.59l0.24-9.09l7.67,1.25
	C234.45,159.13,234.46,162.27,234.47,165.41z M234.44,155.5l-7.66-1.25l0.26-9.8l7.38,1.54
	C234.42,149.16,234.43,152.33,234.44,155.5z M234.42,145.51l-7.36-1.53l0.26-9.96l7.07,1.96
	C234.4,139.15,234.41,142.33,234.42,145.51z M227.32,133.53l0.25-9.38l6.77,1.87c0.02,3.15,0.03,6.31,0.04,9.46L227.32,133.53z
	 M234.31,120.12c0.01,1.8,0.02,3.61,0.03,5.41l-6.76-1.87l0.25-9.38l6.29,1.74C234.48,116.62,234.3,117.68,234.31,120.12z
	 M229.48,51.36c1.05,1.08,1.87,2.3,2.5,3.62l-2.58-0.71L229.48,51.36z M229.39,54.76l2.85,0.79c1.12,2.58,1.57,5.5,1.67,8.49
	c0.02,0.58,0.03,1.15,0.05,1.73l-4.82-1.33L229.39,54.76z M233.97,66.26c0.08,3.16,0.11,6.32,0.11,9.48l-5.2-1.44l0.25-9.38
	L233.97,66.26z M220.52,46.35c1.69,0.61,3.35,1.4,4.95,2.17c1.39,0.67,2.55,1.48,3.54,2.4l-0.08,3.23l-8.53-2.36L220.52,46.35z
	 M220.39,52.27l8.53,2.36l-0.25,9.67l-8.5-2.35L220.39,52.27z M228.65,64.79l-0.25,9.38l-8.47-2.34l0.22-9.39L228.65,64.79z
	 M216.4,45.33c1.23,0.13,2.45,0.44,3.65,0.85l-0.13,5.48l-7.67-2.12l2.5-4.38C215.31,45.21,215.86,45.27,216.4,45.33z M213.22,44.99
	l-2.13,3.72c-0.61-0.2-1.54-0.19-2.99-0.18c-2.24,0.01-4.48,0.02-6.72,0.03l2.55-4.47C207.03,44.37,210.13,44.67,213.22,44.99z
	 M203.42,44.05l-2.58,4.51c-2.57,0.01-5.14,0.02-7.7,0.03l2.5-5.15C198.23,43.62,200.82,43.82,203.42,44.05z M185.58,42.96
	c0.77,0.02,1.55,0.06,2.32,0.09l-3.2,5.59c-2.51,0.01-5.01,0.02-7.52,0.03l3.33-5.83C182.2,42.87,183.89,42.91,185.58,42.96z
	 M191.22,100.46l1.09-0.01l0,0.17C191.94,100.62,191.58,100.57,191.22,100.46z M192.37,118.06l0.01,2.22l-7.59,0.04l-0.01-1.26
	c2.09-0.2,4.18-0.55,6.31-0.85C191.52,118.15,191.94,118.1,192.37,118.06z M190.23,99.99c-0.19-0.12-0.39-0.26-0.59-0.41
	c-1.04-0.81-2.61-0.89-3.79-1.56c-0.43-0.24-0.88-0.54-1.28-0.87l-0.06-6.58l7.78-0.06l0.03,9.47L190.23,99.99z M183.83,70.61
	l0.09,9.47l-7.49,0.04l0.03-9.47L183.83,70.61z M176.46,70.18l0.03-9.47l7.24-0.04l0.09,9.47L176.46,70.18z M183.93,80.55l0.09,9.54
	l-7.62,0.06l0.03-9.57L183.93,80.55z M184.03,90.57l0.06,6.13c-0.27-0.29-0.51-0.59-0.67-0.92c-1.1-2.25-2.67-3.4-5.2-3.33
	c-0.59,0.02-1.42-0.09-1.82-0.42l0-1.4L184.03,90.57z M178.03,118.94c2.12,0.35,4.2,0.34,6.27,0.16l0.01,1.22l-8.01,0.04l0-1.14
	C176.86,118.99,177.5,118.85,178.03,118.94z M184.32,120.8l0.09,8.99l-8.14,0.04l0.03-9L184.32,120.8z M184.41,130.26l0.1,10.66
	l-8.28-0.02l0.03-10.6L184.41,130.26z M184.52,141.4l0.1,10.27l-8.42-0.07l0.03-10.23L184.52,141.4z M184.63,152.14l0.08,8.67
	l-8.54-0.02l0.03-8.71L184.63,152.14z M184.49,90.09l-0.09-9.54l7.85-0.04l0.03,9.52L184.49,90.09z M184.4,80.08l-0.09-9.47
	l7.91-0.04l0.03,9.47L184.4,80.08z M184.3,70.14l-0.09-9.47l7.98-0.04l0.03,9.47L184.3,70.14z M184.2,60.19l-0.09-9.39
	c2.68-0.01,5.36-0.02,8.05-0.02l0.03,9.37L184.2,60.19z M179.97,42.83l-3.34,5.84c-2.51,0.01-5.02,0.02-7.54,0.03l3.35-5.94
	C174.95,42.77,177.46,42.79,179.97,42.83z M171.91,42.76l-3.35,5.95c-2.19,0.01-4.38,0.02-6.57,0.03c-0.3,0-0.59,0-0.89,0l3.56-5.98
	C167.06,42.75,169.49,42.75,171.91,42.76z M120.83,43.2L119.57,49c-2.34,0.01-4.69,0.02-7.03,0.02l3.17-5.8
	C117.42,43.21,119.12,43.2,120.83,43.2z M125.79,70.44l-6.53,0.03l0.21-9.47l4.61-0.02C123.12,64.28,123.88,67.47,125.79,70.44z
	 M115.17,43.22l-3.16,5.8c-2.51,0.01-5.01,0.01-7.52,0.01l3.15-5.78C110.15,43.25,112.66,43.23,115.17,43.22z M110.68,70.52
	l-7.64,0.04l0.28-9.47l7.61-0.04L110.68,70.52z M110.89,80.94l1.08-0.01c-0.37,0.32-0.73,0.65-1.1,0.97L110.89,80.94z M40.18,101.17
	V91.7l6.36-0.05l-0.06,9.47L40.18,101.17z M46.47,101.59l-0.06,9.03l-6.24,0.03v-9.02L46.47,101.59z M40.18,91.22v-9.92l6.43-0.03
	l-0.06,9.9L40.18,91.22z M94.76,61.13l-0.31,9.47l-7.64,0.04l0.34-9.47L94.76,61.13z M87.17,60.7l0.34-9.44
	c2.53,0,5.05-0.01,7.58-0.01l-0.3,9.41L87.17,60.7z M94.44,71.08l-0.31,9.47l-7.67,0.04l0.34-9.47L94.44,71.08z M86.69,60.7
	l-7.61,0.04l0.37-9.47c2.53,0,5.05-0.01,7.58-0.01L86.69,60.7z M86.68,61.18l-0.34,9.47l-7.64,0.04l0.37-9.47L86.68,61.18z
	 M77.06,100.88l-7.74,0.06l0.4-9.47l7.71-0.06L77.06,100.88z M77.14,110.94l3.86-0.02c-0.16,0.12-0.31,0.25-0.48,0.38
	c-1.09,0.88-2.26,1.5-3.48,1.99L77.14,110.94z M59.01,136.81c0.47-0.47,0.94-0.9,1.43-1.29l-0.15,5.09l-7.16-0.02l0.02-1.02
	C55.35,139.32,57.39,138.45,59.01,136.81z M53.54,123.85l0.06-2.37l3.41-0.02c-0.27,0.23-0.52,0.47-0.77,0.69
	C55.39,122.91,54.48,123.47,53.54,123.85z M59.59,120.03c-0.66,0.02-1.35,0.43-2.01,0.95L53.61,121l0.24-9.94l7.3-0.04l-0.26,8.86
	C60.48,119.97,60.04,120.02,59.59,120.03z M53.87,110.59l0.22-9.05l7.34-0.06l-0.26,9.07L53.87,110.59z M69.67,81.15L69.26,91
	l-7.06,0.06l0.29-9.86L69.67,81.15z M62.51,80.72l0.27-9.47l7.31-0.04l-0.4,9.47L62.51,80.72z M62.03,80.72l-7.44,0.04l0.23-9.47
	l7.48-0.04L62.03,80.72z M62.02,81.19l-0.29,9.86l-7.39,0.06l0.24-9.88L62.02,81.19z M61.72,91.53L61.44,101l-7.34,0.06l0.23-9.47
	L61.72,91.53z M61.63,111.02l6.8-0.04l-0.22,5.29c-2.3,1.18-4.27,2.88-6.83,3.51L61.63,111.02z M61.64,110.55l0.26-9.08l6.92-0.05
	l-0.38,9.1L61.64,110.55z M61.92,101l0.28-9.47l7.05-0.06l-0.4,9.47L61.92,101z M69.3,101.42l7.74-0.06l-0.35,9.12l-7.77,0.04
	L69.3,101.42z M69.73,90.99l0.41-9.84l7.67-0.04l-0.38,9.82L69.73,90.99z M70.17,80.68l0.4-9.47l7.64-0.04l-0.37,9.47L70.17,80.68z
	 M77.9,91.4l7.71-0.06l-0.34,9.47l-7.74,0.06L77.9,91.4z M85.73,101.29l3.62-0.03c-0.75,0.77-1.42,1.62-1.71,2.55
	c-0.3,0.94-1.17,1.76-2.08,2.47L85.73,101.29z M85.62,90.87l-7.71,0.06l0.38-9.82l7.67-0.04L85.62,90.87z M78.31,80.63l0.37-9.47
	l7.64-0.04l-0.34,9.47L78.31,80.63z M78.61,60.75L71,60.79l0.4-9.51c2.53,0,5.05,0,7.58-0.01L78.61,60.75z M78.59,61.22l-0.37,9.47
	l-7.64,0.04l0.4-9.47L78.59,61.22z M70.53,60.79l-7.45,0.04l0.28-9.54c2.52,0,5.05,0,7.57-0.01L70.53,60.79z M70.51,61.26l-0.4,9.47
	l-7.32,0.04l0.27-9.47L70.51,61.26z M62.61,60.83l-7.53,0.04l0.23-9.58c2.52,0,5.05,0,7.57-0.01L62.61,60.83z M62.6,61.3l-0.27,9.47
	l-7.48,0.04l0.23-9.47L62.6,61.3z M54.61,60.87l-7.4,0.04l0.06-9.61c2.52,0,5.05,0,7.57-0.01L54.61,60.87z M54.59,61.34l-0.23,9.47
	l-7.22,0.04l0.06-9.47L54.59,61.34z M54.35,71.29l-0.23,9.47l-7.04,0.04l0.06-9.47L54.35,71.29z M54.11,81.23l-0.24,9.88l-6.85,0.05
	l0.06-9.9L54.11,81.23z M53.86,91.59l-0.23,9.47l-6.67,0.05l0.06-9.47L53.86,91.59z M53.61,101.54l-0.22,9.05l-6.5,0.03l0.06-9.03
	L53.61,101.54z M53.38,111.07l-0.24,9.94l-6.32,0.03l0.06-9.94L53.38,111.07z M53.13,121.48l-0.06,2.55
	c-1.75,0.59-3.62,0.61-5.62,0.26c-0.21-0.04-0.43-0.06-0.65-0.09l0.02-2.69L53.13,121.48z M50.73,139.59
	c0.66,0.06,1.31,0.06,1.96,0.02l-0.02,0.97l-5.96-0.02l0.01-1.51C48.04,139.28,49.38,139.47,50.73,139.59z M46.74,60.91l-6.56,0.03
	v-9.64c2.21,0,4.41,0,6.62-0.01L46.74,60.91z M46.73,61.39l-0.06,9.47l-6.5,0.03v-9.47L46.73,61.39z M46.67,71.33l-0.06,9.47
	l-6.43,0.03v-9.47L46.67,71.33z M46.63,151.05l5.77,0.05l-0.23,9.36l-5.61-0.01L46.63,151.05z M46.63,150.58l0.06-9.54l5.95,0.02
	l-0.23,9.57L46.63,150.58z M52.88,151.1l7.11,0.06l-0.27,9.32l-7.07-0.02L52.88,151.1z M52.89,150.63l0.23-9.58l7.16,0.02L60,150.68
	L52.89,150.63z M60.46,151.16l6.27,0.05l-0.39,9.29l-6.15-0.02L60.46,151.16z M60.47,150.69l0.28-9.62l6.4,0.02l-0.41,9.65
	L60.47,150.69z M60.77,140.6l0.16-5.46c2.05-1.52,4.28-2.4,6.6-2.9l-0.35,8.37L60.77,140.6z M67.63,141.09l7.87,0.02l-0.38,9.69
	l-7.9-0.06L67.63,141.09z M67.65,140.62l0.36-8.47c2.53-0.48,5.18-0.53,7.86-0.47l-0.35,8.96L67.65,140.62z M68.68,116.05l0.21-5.06
	l7.77-0.04l-0.1,2.54C73.94,114.45,71.16,114.9,68.68,116.05z M76.34,131.68c0.23,0.01,0.45,0.01,0.68,0.02
	c1.95,0.06,3.9,0.52,5.51-0.9l1.68-0.01l-0.35,9.87l-7.86-0.02L76.34,131.68z M83.01,130.33c0.28-0.26,0.84-0.4,1.22-0.35
	l-0.01,0.34L83.01,130.33z M82.84,108.58c-0.23,0.82-0.68,1.36-1.26,1.87l-4.42,0.02l0.35-9.12l7.74-0.06l-0.19,5.35
	C83.99,107.42,82.98,108.06,82.84,108.58z M84.7,130.04c2.77,0.38,5.36,0.05,7.85-0.66l-0.03,0.9l-7.83,0.04L84.7,130.04z
	 M90.34,100.31c-0.17,0.15-0.34,0.31-0.51,0.47l-4.08,0.03l0.34-9.47l7.71-0.06l-0.2,6.08C92.51,98.34,91.42,99.32,90.34,100.31z
	 M86.1,90.87l0.35-9.8l7.67-0.04L93.8,90.8L86.1,90.87z M94.26,91.27l6.13-0.05c-2.11,1.89-4.21,3.79-6.31,5.69L94.26,91.27z
	 M94.28,90.8l0.32-9.78l7.67-0.04l-0.26,8.78c-0.36,0.33-0.73,0.66-1.09,0.98L94.28,90.8z M101.44,125.76
	c2.62-1.2,2.8-1.11,2.82,1.87c0.01,0.86-0.03,1.72-0.05,2.58l-2.9,0.02L101.44,125.76z M94.61,80.55l0.31-9.47l7.64-0.04l-0.28,9.47
	L94.61,80.55z M94.93,70.6l0.31-9.47l7.61-0.04l-0.28,9.47L94.93,70.6z M95.25,60.66l0.3-9.41c2.53,0,5.05-0.01,7.58-0.01
	l-0.27,9.38L95.25,60.66z M103.03,71.03l7.64-0.04l-0.24,9.47l-7.67,0.04L103.03,71.03z M103.33,60.62l0.27-9.38
	c2.53,0,5.05-0.01,7.58-0.01l-0.24,9.35L103.33,60.62z M107.1,43.26l-3.15,5.78c-2.68,0-5.35,0.01-8.03,0.02l1.32-5.77
	C100.53,43.28,103.81,43.27,107.1,43.26z M96.75,43.29l-1.32,5.77c-2.39,0.01-4.78,0.02-7.17,0.03l2.81-5.8
	C92.97,43.29,94.86,43.29,96.75,43.29z M83.77,43.28c2.26,0.01,4.52,0.01,6.78,0.01l-2.81,5.8c-2.29,0.01-4.58,0.02-6.87,0.03
	c-0.27,0-0.53,0-0.8,0.01l2.34-5.86C82.86,43.27,83.32,43.28,83.77,43.28z M81.9,43.27l-2.35,5.86c-2.45,0.02-4.9,0.04-7.35,0.06
	l3.26-5.97C77.61,43.24,79.76,43.26,81.9,43.27z M67.46,43.15c2.49,0.03,4.98,0.05,7.47,0.07l-3.26,5.98
	c-2.52,0.02-5.04,0.05-7.55,0.08L67.46,43.15z M66.92,43.14l-3.35,6.14c-2.56,0.03-5.12,0.06-7.67,0.09l2.89-6.32
	C61.5,43.09,64.21,43.12,66.92,43.14z M58.27,43.05l-2.9,6.33c-2.52,0.03-5.05,0.06-7.57,0.1l2.98-6.51
	C53.27,43,55.77,43.02,58.27,43.05z M50.26,42.97l-2.98,6.52c-2.31,0.03-4.62,0.06-6.94,0.09l1.08-6.68
	C44.37,42.91,47.31,42.94,50.26,42.97z M24.55,141.95c0.11,0.09,0.44-0.11,0.79-0.42c0.21-0.13,0.41-0.26,0.62-0.39l0.03,2.86
	l-5.6,3.08l-0.18-6.95c0.15-0.02,0.31-0.08,0.48-0.18c1.74-0.84,3.49-1.68,5.23-2.51l0.02,2.33c-0.36,0.39-0.73,0.78-1.09,1.18
	C24.56,141.44,24.43,141.86,24.55,141.95z M30.65,121.55l-4.39,2.41l-0.09-9.35l4.5-2.48c-0.02,2.01-0.03,4.02-0.05,6.03
	C30.61,119.29,30.64,120.42,30.65,121.55z M30.65,122.09c-0.01,0.9-0.04,1.8-0.14,2.69c-0.1,0.94-0.82,2.32-1.57,2.58
	c-0.87,0.3-1.75,0.59-2.64,0.88l-0.04-3.74L30.65,122.09z M26.18,163.78l-5.28,2.9l-0.24-9.27l5.43-2.99L26.18,163.78z
	 M20.64,156.88l-0.24-9.27l5.59-3.07l0.09,9.35L20.64,156.88z M22.27,136.1l-2.14,1.18l-0.02-0.58
	C20.83,136.51,21.55,136.3,22.27,136.1z M20.05,134.52L20,132.51c0.86-0.09,1.73-0.19,2.59-0.28c0.22-0.03,0.44,0.07,0.54,0.24
	c0.12,0.22,0.05,0.53-0.2,0.69C21.97,133.62,21.01,134.07,20.05,134.52z M23.95,135.72c0.06,0.01,0.11,0.04,0.13,0.07
	c0.07,0.13-0.17,0.45-0.61,0.73c-1.86,1.24-2.65,2.28-3.22,2.7c-0.03,0.02-0.05,0.05-0.07,0.07l-0.04-1.48L23.95,135.72z
	 M19.94,130.19l-0.06-2.18l5.91-3.25l0.04,3.64C23.91,129.01,21.95,129.6,19.94,130.19z M19.87,127.48l-0.24-9.27l6.07-3.34
	l0.09,9.35L19.87,127.48z M19.66,137.54l-4.26,2.34c0.08-1.57,0.77-2.31,2.45-2.64c0.6-0.12,1.2-0.26,1.79-0.42L19.66,137.54z
	 M19.61,117.68l-0.24-9.27l6.23-3.43l0.09,9.35L19.61,117.68z M19.35,107.88l-0.24-9.27l6.39-3.52l0.09,9.35L19.35,107.88z
	 M25.5,94.56l-6.4,3.52l-0.24-9.27l6.55-3.6L25.5,94.56z M25.4,84.67l-6.56,3.61l-0.24-9.27l6.71-3.69L25.4,84.67z M25.3,74.78
	l-6.72,3.7l-0.24-9.27l6.87-3.78L25.3,74.78z M25.21,64.89l-6.88,3.79l-0.26-9.73l7.04-3.87L25.21,64.89z M25.04,47.39l0.07,7.14
	l-7.05,3.88l-0.12-4.65C19.87,51.11,22.28,49.07,25.04,47.39z M17.48,54.4l0.11,4.26l-2.84,1.56C15.35,58.21,16.22,56.26,17.48,54.4
	z M14.56,60.87l3.04-1.67l0.26,9.73l-4.33,2.38C13.46,67.75,13.66,64.23,14.56,60.87z M13.54,71.84L13.54,71.84l4.33-2.38l0.24,9.27
	l-4.37,2.4C13.68,78.04,13.6,74.94,13.54,71.84z M13.76,81.67l4.37-2.4l0.24,9.27l-4.39,2.42C13.91,87.86,13.83,84.76,13.76,81.67z
	 M13.99,91.48l4.39-2.42l0.24,9.27l-4.41,2.42C14.15,97.67,14.07,94.57,13.99,91.48z M14.24,101.29l4.41-2.42l0.24,9.27l-4.41,2.43
	C14.39,107.47,14.32,104.38,14.24,101.29z M14.49,111.1l4.41-2.43l0.24,9.27l-4.42,2.43C14.65,117.27,14.57,114.18,14.49,111.1z
	 M14.78,122.44c-0.01-0.51-0.03-1.03-0.04-1.54l4.42-2.43l0.24,9.27l-4.2,2.31C15.03,127.41,14.85,124.92,14.78,122.44z
	 M19.42,128.27l0.05,2.06c-1.36,0.4-2.75,0.81-4.18,1.24c-0.02-0.34-0.04-0.67-0.06-1L19.42,128.27z M17.8,132.75
	c0.58-0.06,1.15-0.12,1.73-0.19l0.06,2.18c-1.27,0.6-2.53,1.19-3.8,1.79C14.9,133.16,14.97,133.05,17.8,132.75z M15.4,140.47
	c0-0.02,0-0.03,0-0.05l4.28-2.35l0.24,9.27l-4.2,2.31C15.61,146.59,15.51,143.53,15.4,140.47z M15.73,150.18l4.2-2.31l0.24,9.27
	l-4.14,2.28C15.94,156.34,15.84,153.26,15.73,150.18z M16.06,159.94l4.13-2.27l0.24,9.27l-4.08,2.25
	C16.25,166.1,16.15,163.02,16.06,159.94z M16.37,169.72l4.08-2.24l0.24,9.27l-4.03,2.22C16.56,175.88,16.46,172.8,16.37,169.72z
	 M17.25,188.58C17.24,188.58,17.24,188.58,17.25,188.58c-0.15-0.69-0.32-1.13-0.33-1.57c-0.08-2.51-0.16-5.01-0.24-7.52l4.03-2.22
	l0.24,9.27L17.25,188.58z M19.78,187.91c-0.27,0.13-0.57,0.21-0.87,0.29l2.06-1.13l0.01,0.29
	C20.57,187.54,20.18,187.73,19.78,187.91z M20.91,167.21l5.27-2.9l0.09,9.35l-5.12,2.81L20.91,167.21z M21.17,177.02l5.11-2.81
	l0.09,9.35l-4.96,2.73L21.17,177.02z M21.44,187.14l-0.01-0.33l4.95-2.72l0.01,0.69C24.75,185.59,23.09,186.37,21.44,187.14z
	 M26.39,137.21c0.53-0.25,1.06-0.51,1.59-0.76c0.36-0.28,0.73-0.3,0.83-0.18c0.1,0.12-0.01,0.46-0.33,0.74
	c-0.69,0.75-1.39,1.5-2.08,2.25L26.39,137.21z M26.43,140.84c1.24-0.78,2.49-1.56,3.73-2.34c0.13,0.9,0.28,1.48,0.28,2.06
	c0,0.33,0.01,0.66,0.01,0.99l-4,2.2L26.43,140.84z M26.46,144.28l4-2.2c0.03,3.12,0.05,6.24,0.08,9.36l-3.99,2.19L26.46,144.28z
	 M26.56,154.17l3.98-2.19c0.03,3.12,0.05,6.24,0.07,9.36l-3.97,2.18L26.56,154.17z M26.65,164.06l3.96-2.18
	c0.02,3.12,0.04,6.25,0.06,9.37l-3.93,2.16L26.65,164.06z M29.74,183.06c-0.95,0.51-1.92,1-2.89,1.49l-0.01-0.72l3.7-2.04
	C30.38,182.36,30.1,182.87,29.74,183.06z M30.68,181.19l-3.84,2.11l-0.09-9.35l3.93-2.16c0.02,2.98,0.03,5.96,0.04,8.94
	C30.72,180.87,30.71,181.03,30.68,181.19z M30.68,111.59l-4.51,2.48l-0.09-9.35l4.69-2.58C30.73,105.3,30.7,108.44,30.68,111.59z
	 M30.76,101.6l-4.7,2.58l-0.09-9.35l4.87-2.68C30.82,95.31,30.79,98.45,30.76,101.6z M30.85,91.61l-4.88,2.68l-0.09-9.35l5.05-2.78
	C30.9,85.32,30.88,88.46,30.85,91.61z M30.94,81.62l-5.06,2.79l-0.09-9.35l5.24-2.88C30.99,75.33,30.96,78.48,30.94,81.62z
	 M31.02,71.63l-5.25,2.89l-0.09-9.35l5.42-2.98C31.08,65.34,31.05,68.49,31.02,71.63z M31.11,61.64l-5.43,2.99l-0.1-9.82l5.61-3.09
	C31.17,55.03,31.14,58.34,31.11,61.64z M31.2,51.18l-5.62,3.09l-0.07-7.16c1.7-1,3.51-1.88,5.42-2.7c0.15,0.85,0.32,1.35,0.32,1.85
	C31.23,47.89,31.21,49.54,31.2,51.18z M39.7,160.43l-6.15-0.02l0,0.47l6.16,0.02v9.42l-6.16,0.03l0,0.47l6.15-0.03v9.01l-6.16,0.02
	l0,0.47l6.15-0.02v3.83c-0.15-0.06-0.3-0.11-0.46-0.17c-1.32-0.52-2.56-1.38-3.91-1.59c-1.56-0.23-1.92-0.9-1.91-2.31
	c0.05-6.7,0.02-13.4,0.02-20.1c-0.22,0-0.43,0-0.65,0c0-3,0.01-6,0.01-8.99l6.9,0.05V160.43z M39.7,150.52l-6.9-0.05
	c0-3.16,0-6.31-0.03-9.47l6.92,0.02V150.52z M39.7,140.54l-6.93-0.02c0-0.31,0-0.62-0.01-0.93c-0.01-1.45,0.48-2.21,1.92-2.44
	c1.01-0.16,2-0.46,2.97-0.76c0.72-0.23,1.45-0.55,2.04-0.42V140.54z M39.7,128.45c-2.28-0.7-4.43-1.29-6.45-2.18
	c-0.55-0.24-0.73-1.78-0.74-2.73c0-0.65-0.01-1.31-0.01-1.96l7.19-0.04V128.45z M39.7,101.17l-7.1,0.06l0,0.47l7.1-0.06v9.01
	l-7.1,0.04l0,0.47l7.1-0.04v9.94l-7.19,0.04c-0.01-3.32-0.03-6.64-0.04-9.97l0.01,0l-0.01-0.01c-0.01-3.31-0.02-6.61-0.02-9.92
	l0.03-0.02l-0.03-0.05c0-3.13,0-6.26,0-9.39l7.25-0.06V101.17z M39.7,80.83l-7.1,0.04l0,0.47l7.1-0.04v9.92l-7.25,0.06
	c0,0,0-0.01,0-0.01l0.02-0.01l-0.02-0.04c0.01-2.56,0.01-5.11,0.03-7.67c0.02-4.05,0.09-8.1,0.16-12.15l7.06-0.04V80.83z
	 M39.7,70.89l-7.05,0.04c0.06-3.16,0.11-6.31,0.16-9.47l6.89-0.04V70.89z M39.7,60.95l-6.88,0.04c0.04-2.49,0.06-4.99,0.07-7.48
	c0.01-2.36,0.83-2.92,2.95-2.42c0.91,0.21,1.88,0.23,2.82,0.23c0.35,0,0.69,0,1.04,0V60.95z M37.14,49.61c-0.08,0-0.16,0-0.24,0
	c-1.22,0-3.23,0.45-3.52-0.07c-0.72-1.27-0.8-2.99-0.8-4.53c0-0.51,0.98-1.38,1.6-1.48c2.23-0.35,4.51-0.63,6.76-0.64l-1.08,6.69
	C38.95,49.59,38.04,49.6,37.14,49.61z M45.94,185.29c-1.94-0.06-3.87-0.38-5.76-1.01v-4l5.79-0.02L45.94,185.29z M45.97,179.79
	l-5.8,0.02v-9.01l5.86-0.03L45.97,179.79z M46.03,170.29l-5.86,0.03v-9.42l5.92,0.02L46.03,170.29z M46.1,160.44l-5.92-0.02V151
	l5.98,0.05L46.1,160.44z M46.16,150.58l-5.98-0.05v-9.51l6.05,0.02L46.16,150.58z M46.22,140.56l-6.05-0.02v-4.31
	c0.24,0.22,0.44,0.59,0.58,1.17c0.09,0.36,0.85,0.72,1.34,0.81c1.38,0.25,2.75,0.51,4.13,0.75L46.22,140.56z M46.33,124.16
	c-0.65-0.03-1.3-0.02-1.93,0.06c-2.54,0.29-3.53,1.43-3.65,4.56c-0.19-0.06-0.38-0.12-0.58-0.18v-7.05l6.17-0.03L46.33,124.16z
	 M40.18,121.07v-9.94l6.24-0.03l-0.06,9.94L40.18,121.07z M51.58,184.73c-0.22,0.05-0.44,0.1-0.66,0.14c-1.5,0.29-3,0.43-4.51,0.42
	l0.03-5.04l5.25-0.01L51.58,184.73z M51.7,179.77l-5.26,0.01l0.06-9.03l5.42-0.03L51.7,179.77z M46.51,170.28l0.06-9.37l5.6,0.01
	l-0.23,9.32L46.51,170.28z M59.06,183.22c-2.43-0.05-4.67,0.82-7,1.4l0.11-4.37l6.98-0.02L59.06,183.22z M59.16,179.75l-6.98,0.02
	l0.22-9.05l7.02-0.04L59.16,179.75z M52.41,170.25l0.23-9.32l7.06,0.02l-0.27,9.26L52.41,170.25z M65.45,181.71
	c-1.2,1.22-2.95,2.16-4.17,1.83c-0.6-0.16-1.18-0.25-1.75-0.29l0.09-3.02l5.9-0.02L65.45,181.71z M65.53,179.74l-5.9,0.02l0.26-9.07
	l6.02-0.03L65.53,179.74z M59.91,170.21l0.27-9.26l6.15,0.02l-0.39,9.21L59.91,170.21z M65.95,181.14l0.04-0.93l0.54,0
	C66.38,180.52,66.19,180.83,65.95,181.14z M74,170.67c-4.07,1.64-6.5,4.53-7.25,8.87c-0.01,0.06-0.03,0.13-0.05,0.2l-0.69,0
	l0.38-9.08l7.75-0.04C74.09,170.63,74.05,170.65,74,170.67z M74.37,170.13l-7.96,0.04l0.39-9.21l7.93,0.02L74.37,170.13z
	 M66.82,160.5l0.39-9.28l7.9,0.06l-0.36,9.24L66.82,160.5z M83.05,163.23c-0.21,0.27-0.41,0.55-0.61,0.83
	c-1.91,2.7-4.35,4.69-7.26,6.07l-0.34,0l0.35-9.14l7.93,0.02L83.05,163.23z M83.15,160.54l-7.93-0.02l0.36-9.24l7.9,0.06
	L83.15,160.54z M75.59,150.81l0.38-9.69l7.87,0.02l-0.35,9.74L75.59,150.81z M83.55,162.59l0.06-1.57l1.26,0
	C84.41,161.53,83.97,162.05,83.55,162.59z M91.73,154.88c-2.34,1.67-4.51,3.54-6.45,5.66l-1.66,0l0.33-9.2l7.9,0.06L91.73,154.88z
	 M91.86,150.94l-7.9-0.06l0.35-9.74l7.87,0.02L91.86,150.94z M84.33,140.66l0.35-9.87l7.83-0.04l-0.32,9.93L84.33,140.66z
	 M95.81,152.26c-1.23,0.72-2.43,1.48-3.59,2.28l0.1-3.13l4.3,0.03C96.44,151.76,96.19,152.04,95.81,152.26z M98.62,146.46
	c-2.18,0.76-1.31,2.92-1.8,4.52l-4.49-0.04l0.32-9.78l4.59,0.01c0.04,0.82,0.41,1.85,1.03,3.33c0.09,0.22,0.28,0.41,0.31,0.63
	C98.63,145.59,98.75,146.41,98.62,146.46z M100.62,137.59c-0.05,0.03-0.11,0.06-0.16,0.09c-2.09,1.15-3.05,1.89-3.2,3.01l-4.59-0.01
	l0.32-9.94l7.83-0.04L100.62,137.59z M100.83,130.23L93,130.27l0.03-1.03c2.71-0.82,5.31-2.05,7.92-3.26L100.83,130.23z
	 M101.1,137.3l0.19-6.6l2.91-0.02c0,0.24,0,0.48,0,0.73C104.27,134.05,103.25,135.91,101.1,137.3z M107.6,189.86l-3.72,0.02
	c1.24-0.04,2.48-0.08,3.72-0.12L107.6,189.86z M102.5,89.33l0.24-8.35l7.67-0.04l-0.04,1.39C107.74,84.66,105.11,86.99,102.5,89.33z
	 M108.07,189.86l0-0.12c1.36-0.05,2.72-0.09,4.08-0.13c0.21-0.01,1.92,0.08,3.67,0.21L108.07,189.86z M118.63,77.71
	c-0.91,0.42-1.83,0.85-2.74,1.28c-1.07,0.51-2.29,0.85-3.28,1.46l-1.72,0.01l0.24-9.47l7.64-0.04L118.63,77.71z M118.8,70.48
	l-7.64,0.04l0.24-9.47l7.61-0.04L118.8,70.48z M111.41,60.57l0.24-9.35c2.02,0,4.04-0.01,6.06-0.01c0.51,0,1.01-0.01,1.52-0.02
	l-0.21,9.34L111.41,60.57z M125.15,74.5c-1.96,1.09-4,2.04-6.04,2.99l0.15-6.54l6.82-0.04C126.94,72.49,126.58,73.71,125.15,74.5z
	 M127.22,54.56c-0.82,1.49-1.63,2.99-2.38,4.52c-0.24,0.48-0.43,0.95-0.59,1.43l-4.74,0.02l0.21-9.34c2.25-0.04,4.5-0.13,6.75-0.21
	c0.31-0.01,0.59,0,0.83,0.02L127.22,54.56z M120.06,49l1.26-5.81c2.23-0.01,4.45-0.02,6.68-0.03c0.97,0,1.93-0.04,2.9-0.08
	l-2.83,5.84c-0.21,0.03-0.42,0.05-0.61,0.05C124.99,48.99,122.52,48.99,120.06,49z M127.98,53.16c-0.09,0.17-0.18,0.33-0.27,0.5
	l0.05-2.56C128.47,51.34,128.65,51.93,127.98,53.16z M142.25,43.94h-2.89l-0.21-0.12l-0.07,0.12h-1.55c-0.4,0.11-0.79,0.22-1.2,0.31
	c-2.57,0.56-5.02,1.22-6.44,3.85c-0.18,0.33-0.7,0.57-1.26,0.71l2.79-5.75c1.29-0.06,2.58-0.12,3.88-0.15
	c0.57-0.01,1.14,0.03,1.71,0.08h5.84c0.45-0.07,0.9-0.14,1.36-0.14c0.89,0,1.79,0,2.68-0.01l-0.81,1.76
	C144.83,44.33,143.53,44.17,142.25,43.94z M151.77,46.87c-1.1-1.13-3.04-1.53-4.67-2.01c-0.18-0.05-0.36-0.1-0.54-0.15l0.86-1.88
	c2.72-0.01,5.44-0.02,8.16-0.04l-2.69,5.02C152.5,47.56,152.13,47.25,151.77,46.87z M156.11,42.8c2.66-0.02,5.32-0.03,7.98-0.04
	l-3.56,5.98c-0.78,0.01-1.56,0.03-2.33,0.11c-1.81,0.19-3.42,0.09-4.92-0.78L156.11,42.8z M158.79,158.23
	c-0.86,0.03-1.63,0.15-2.26,0.37c-0.2,0.07-0.45,0.01-0.99,0.01c-0.09-2.22-0.11-4.36,2.15-5.15c0.4-0.14,0.78-0.29,1.14-0.45
	L158.79,158.23z M158.17,60.8l1.25-0.01l-0.01,1.22C159.14,61.57,158.73,61.16,158.17,60.8z M159.03,77.42c0.1-1.3,0.2-2.6,0.31-3.9
	l-0.04,6.68l-0.39,0C158.87,79.52,158.93,78.64,159.03,77.42z M159.29,80.68l-0.01,0.99c-0.18-0.28-0.28-0.6-0.34-0.99L159.29,80.68
	z M167.18,159.68c-2.77-0.89-5.62-1.46-7.92-1.46l0.04-5.44c0.49-0.25,0.94-0.53,1.36-0.82l6.55,0.05L167.18,159.68z M167.21,151.53
	l-5.94-0.05c2.94-2.43,3.83-6.08,4.24-10.14l1.73,0L167.21,151.53z M167.24,140.88l-1.68,0c0-0.04,0.01-0.08,0.01-0.12
	c0.32-3.48,0.8-6.95,1.34-10.4l0.36,0L167.24,140.88z M167.28,129.88l-0.29,0c0.1-0.62,0.19-1.24,0.3-1.86L167.28,129.88z
	 M167.42,86.4c-0.88-0.41-1.74-0.85-2.54-1.38c-0.65-0.43-1.39-0.74-2.1-1.09c-1.49-0.73-2.44-1.2-3.03-1.71l0.01-1.54l7.67-0.04
	L167.42,86.4z M167.44,80.17l-7.67,0.04l0.06-9.47l7.64-0.04L167.44,80.17z M167.47,70.22l-7.64,0.04l0.02-3.35
	c0.02-0.27,0.04-0.54,0.06-0.81c0.07-0.99,0.15-1.98-0.04-2.88l0.02-2.43l7.61-0.04L167.47,70.22z M175.69,163.89
	c-1.12-0.92-2.68-1.83-4.44-2.64l4.45,0.01L175.69,163.89z M175.7,160.79l-5.54-0.01c-0.81-0.34-1.65-0.66-2.5-0.94l0.03-7.82
	l8.05,0.06L175.7,160.79z M175.73,151.6l-8.05-0.06l0.03-10.18l8.05,0.02L175.73,151.6z M175.76,140.9l-8.05-0.02l0.03-10.53
	l8.05-0.04L175.76,140.9z M175.8,129.84l-8.05,0.04l0.01-4.35c0.32-0.77,1.03-1.52,1.7-2c1.31-0.95,2.67-1.83,4.05-2.67l2.31-0.01
	L175.8,129.84z M175.83,120.37l-1.53,0.01c0.51-0.31,1.02-0.61,1.54-0.91L175.83,120.37z M175.92,91.48
	c-0.25-0.3-0.51-0.58-0.78-0.84l0.79-0.01L175.92,91.48z M175.93,90.16l-1.31,0.01c-1.97-1.65-4.4-2.52-6.73-3.56l0.02-5.98
	l8.05-0.04L175.93,90.16z M175.96,80.12l-8.05,0.04l0.03-9.47l8.05-0.04L175.96,80.12z M175.99,70.18l-8.05,0.04l0.03-9.47
	l8.05-0.04L175.99,70.18z M176.02,60.24l-8.05,0.04l0.03-9.23l-0.47,0l-0.03,9.24l-7.61,0.04l0.06-9.27l-0.47,0l-0.06,9.28
	l-1.15,0.01c2.74-3.71-1.92-5.87-2.11-9.21c0.73-0.09,1.39-0.24,2.05-0.24c8.47-0.03,16.94-0.05,25.42-0.07l0.09,9.39l-7.23,0.04
	l0.03-9.19l-0.47,0L176.02,60.24z M176.53,164.67c-0.11-0.12-0.24-0.24-0.37-0.37l0.01-3.04l8.55,0.02l0.08,8.26l-3.24,0.02
	C180,168.2,178.36,166.66,176.53,164.67z M182.1,170.03l2.71-0.01l0.02,2.3C183.92,171.57,183.02,170.83,182.1,170.03z
	 M184.79,120.79l7.58-0.04l0.03,8.99l-7.52,0.04L184.79,120.79z M184.89,130.26l7.52-0.04l0.03,10.73l-7.45-0.02L184.89,130.26z
	 M185,141.4l7.45,0.02l0.03,10.31l-7.38-0.06L185,141.4z M185.1,152.15l7.38,0.06l0.03,8.63l-7.32-0.02L185.1,152.15z
	 M185.19,161.29l7.32,0.02l0.03,8.2l-7.26,0.04L185.19,161.29z M185.3,172.71l-0.03-2.69l7.26-0.04l0.03,9.34
	C189.85,176.48,187.56,174.56,185.3,172.71z M185.25,48.63l3.18-5.57c2.23,0.09,4.46,0.21,6.69,0.35l-2.51,5.18
	C190.15,48.61,187.7,48.62,185.25,48.63z M192.66,60.62l8.04-0.04l0.03,9.47l-8.04,0.04L192.66,60.62z M192.69,70.57l8.04-0.04
	l0.03,9.47l-8.04,0.04L192.69,70.57z M192.72,80.51l8.04-0.04l0.03,9.5l-8.04,0.06L192.72,80.51z M192.75,90.5l8.04-0.06l0.03,9.47
	l-0.46,0c-1.81-0.67-3.72-0.57-5.62,0.04l-1.97,0.02L192.75,90.5z M192.79,100.45l0.61,0c-0.21,0.06-0.41,0.11-0.61,0.14
	L192.79,100.45z M192.84,118.01c2.66-0.25,5.35-0.27,8.05-0.2l0.01,2.42l-8.05,0.04L192.84,118.01z M192.85,120.75l8.05-0.04
	l0.03,8.99l-8.05,0.04L192.85,120.75z M192.88,130.22l8.05-0.04l0.03,10.79l-8.05-0.02L192.88,130.22z M192.92,141.42l8.05,0.02
	L201,151.8l-8.05-0.06L192.92,141.42z M192.95,152.21l8.05,0.06l0.03,8.58l-8.05-0.02L192.95,152.21z M192.98,161.31l8.05,0.02
	l0.03,8.13l-8.05,0.04L192.98,161.31z M193.01,169.98l8.05-0.04l0.03,9.44l-8.05,0.02L193.01,169.98z M198.8,183.41
	c-0.59-0.06-1.11-0.71-1.67-1.07c-0.81-0.51-1.62-1-2.44-1.49c-0.52-0.31-1.16-0.51-1.55-0.93c-0.01-0.02-0.03-0.03-0.04-0.05
	l8-0.02l0.01,3.99C200.55,183.66,199.82,183.51,198.8,183.41z M201.15,51.04l-0.47,0l0.03,9.06l-8.04,0.04l-0.03-9.37
	c2.81-0.01,5.62-0.02,8.43-0.02c2.84-0.01,5.68,0,8.51-0.06c1.31-0.03,1.78,0.51,1.8,1.83c0.03,2.51,0.07,5.01,0.1,7.52l-10.3,0.05
	L201.15,51.04z M201.18,60.58l10.31-0.05c0.04,3.16,0.09,6.31,0.13,9.47l-10.41,0.05L201.18,60.58z M201.21,70.52l10.41-0.05
	c0.05,3.16,0.1,6.31,0.15,9.47l-10.53,0.06L201.21,70.52z M201.24,80.46l10.54-0.06c0.05,3.16,0.1,6.31,0.16,9.47l-10.66,0.08
	L201.24,80.46z M201.36,117.83c2.93,0.09,5.87,0.26,8.79,0.34c0.41,0.01,1.12,1.21,1.23,2.01l-10.01,0.05L201.36,117.83z
	 M201.39,100.38l9.73-0.08c-0.39,0.27-0.94,0.43-1.69,0.45c-0.69,0.02-1.41,0.27-2.04,0.57c-1.89,0.87-3.54,0.7-5.3-0.51
	C201.86,100.64,201.63,100.51,201.39,100.38z M209.25,184.24c-0.04,1.59-0.58,2.3-2.27,2.14c-4.22-0.41-3.55-1.58-5.41-2.37
	l-0.01-4.16l7.86-0.02C209.35,181.3,209.28,182.77,209.25,184.24z M209.67,174.55c-0.05,1.6-0.14,3.2-0.22,4.8l-7.89,0.02
	l-0.03-9.44l8.28-0.04C209.76,171.44,209.72,173,209.67,174.55z M209.83,169.41l-8.3,0.04l-0.03-8.13l8.57,0.02
	C209.99,164.04,209.91,166.73,209.83,169.41z M210.09,160.88l-8.59-0.02l-0.03-8.58l8.88,0.07
	C210.27,155.19,210.18,158.04,210.09,160.88z M210.59,145c-0.08,2.29-0.14,4.58-0.21,6.88l-8.9-0.07l-0.03-10.36l9.27,0.02
	C210.67,142.65,210.62,143.82,210.59,145z M210.72,140.99l-9.29-0.02l-0.03-10.8l9.7-0.05
	C210.98,133.75,210.85,137.37,210.72,140.99z M211.12,129.65l-9.72,0.05l-0.03-8.99l10.02-0.05
	C211.32,123.65,211.22,126.65,211.12,129.65z M211.6,99.82l-10.3,0.08l-0.03-9.47l10.67-0.08c0.04,2.37,0.08,4.75,0.12,7.12
	C212.08,98.46,211.98,99.26,211.6,99.82z M216.81,187.68c-0.98-0.16-1.96-0.31-2.94-0.47c-1.39-0.23-2.05-0.73-2.01-2.28
	c0.04-1.68,0.08-3.37,0.12-5.05l4.97,1.29L216.81,187.68z M216.97,180.69l-4.97-1.29c0.08-3.09,0.15-6.18,0.23-9.28l4.96,1.26
	L216.97,180.69z M212.24,169.63c0.07-2.71,0.14-5.43,0.2-8.14l4.95,0.99l-0.19,8.41L212.24,169.63z M225.37,189.9
	c-1.05-0.37-2.1-0.72-3.16-1.05c-1.6-0.49-3.26-0.82-4.93-1.1l0.15-6.47l8.11,2.11L225.37,189.9z M225.56,182.92l-8.11-2.11
	l0.21-9.31l8.15,2.08L225.56,182.92z M217.67,171.02l0.19-8.44l8.19,1.64l-0.23,8.88L217.67,171.02z M234.53,193.3
	c-2.99-1.09-5.84-2.22-8.69-3.23l0.17-6.54l8.61,2.24c0.02,1.94,0.04,3.88,0.06,5.82C234.69,192.24,234.57,192.89,234.53,193.3z"/>
</svg>
