<svg xmlns="http://www.w3.org/2000/svg" fill="none" viewBox="0 0 250 250">
<path fill="#FFF" d="M242.98,212.14c-0.66-1.36-1.85-2.51-3.45-3.31c-1.1-0.55-2.17-0.75-3.19-0.61c-0.62,0.09-1.1,0.33-1.55,0.63l-0.2,0.08
	l0.02,0.04c-0.21,0.15-0.41,0.3-0.63,0.47c-0.46,0.36-0.99,0.78-1.69,1.17c-1.13,0.63-2.39,1.26-4.47,2.26
	c-2.13,1.02-4.23,1.4-7.13,1.7c-2.61,0.28-4.35,0.31-6.39-1.65c-0.24-0.23-0.63-0.3-1.15-0.22c-0.09,0.01-0.18,0.04-0.28,0.06
	l0.02-0.03c-12.07-24.01-29.65-57.27-41.73-81.28c-1.42-2.83-6.1-11.95-7.62-14.82c-3.32-6.29-6.67-12.57-9.91-18.91
	c-0.56-1.09-1.02-2.49-0.85-3.64c0.79-5.08,1.31-10.1-0.07-15.18c-0.61-2.22-1.3-4.53-1.27-6.78c0.15-10.3,0.52-20.59,0.87-30.88
	c0.17-4.94-0.73-9.65-3.36-13.82c-0.99-1.57-2.69-3.18-4.4-3.73c-3.98-1.26-8.02-1.03-12.05,0.62c-2.52,1.03-5.38,1.31-8.12,1.69
	c-0.62,0.09-1.98-0.83-1.97-1.25c0.11-3.59-3.27-6.57-1.79-10.4c0.14-0.36-0.48-1.28-0.97-1.57c-3.37-1.98-6.66-4.16-10.23-5.7
	c-4.27-1.85-9.18-2.32-13.11,0.04c-5.61,3.36-10.05,8.14-9.47,15.55c0.21,2.69,0.53,5.4,1.16,8.01c1.46,6,1.56,6-3.8,8.98
	c-15.73,8.74-21.01,24.69-16.95,39.9c0.73,2.72,0.91,5.03-1.03,7.3c-0.59,0.69-0.99,1.85-0.92,2.75c0.2,2.66-0.8,4.7-2.75,6.35
	c-2.26,1.9-2.61,4.22-2.25,7.04c0.26,2.01,0.36,4.43-0.52,6.11c-3.75,7.16-4.36,15.15-6.56,22.7c-1.14,3.92-2.22,7.87-3.66,11.68
	c-1.59,4.22-3.94,7.64-2.97,13.06c1.44,8.01-1.31,15.68-6.99,22.21c-3.22,3.7-5.72,8.18-7.87,12.63c-1.99,4.12-2.97,8.72-4.58,13.04
	c-1.49,3.98-2.32,8.33-6.07,11.17c-0.77,0.59-0.95,1.94-1.45,2.91c-1.02,1.98-2.03,3.97-3.11,5.91c-0.63,1.13-1.52,2.12-2.07,3.28
	c-1.22,2.62-2.22,5.34-3.46,7.95c-2.21,4.65-0.77,8.42,4.31,9.18c4.08,0.61,8.35,0.17,12.52-0.03c1.78-0.09,2.63-1.34,2.86-3.27
	c0.25-2.14,0.95-4.25,1.58-6.33c0.97-3.25,1.92-6.51,3.11-9.68c1.33-3.54,2.64-7.13,4.48-10.41c1.23-2.19,3.2-4.08,5.15-5.72
	c4.58-3.84,5.7-9.23,7.19-14.56c0.49-1.74,1.56-3.41,2.7-4.85c2.7-3.43,5.96-6.47,8.34-10.09c3.35-5.11,6.04-10.64,9.17-15.89
	c0.56-0.94,1.8-1.92,2.83-2.03c2.93-0.33,4.78-1.73,5.92-4.38c1.33-3.09,2.8-6.12,4.13-8.98c1.2,2.96,2.39,5.87,3.75,9.22
	c-5.22,2.36-4.81,7.34-4.65,12.55c0.11,3.41-0.35,7.13-1.68,10.23c-2.15,5.01-2.24,9.87-1.09,14.98c0.92,4.08,3.68,7.24,6.88,7.49
	c3.68,0.29,5.16-2.61,6.74-5.15c1.25-2.01,2.3-4.14,3.69-6.7c1.5,1.64,2.64,2.97,3.88,4.21c7.01,7.06,15.3,5.16,18.42-4.22
	c0.06-0.19,0.11-0.39,0.15-0.58c1.16-5.59,2.31-11.18,3.47-16.77c0.18-0.87,0.16-2.17,0.71-2.51c2.03-1.28,1.66-3.22,1.83-5.05
	c0.23-2.49,0.42-5,0.75-7.48c1.32-10.03,3.56-19.98,2.7-30.21c-0.03-0.37,0.15-0.75,0.33-1.56c1.72,0.35,3.35,0.64,4.95,1.03
	c11.44,2.79,27.75,4.11,27.96,2.71c3.36,6.72,4.82,9.04,6.85,13.45c0.27,0.4,0.59,0.79,0.82,1.21
	c11.55,21.05,27.37,47.78,38.94,68.99c-0.14,0.5,0.03,0.97,0.22,1.51c0.17,0.47,0.38,1.05,0.46,1.82c0.12,1.08-0.1,1.74-0.31,2.38
	c-0.17,0.52-0.33,1-0.3,1.65c0.12,2.78,3.57,5.17,5.05,5.47c2.28,0.48,4.64,0.87,7.18,0.87c5.2,0,11.15-1.64,18.66-7.57
	C244.24,218.57,244.69,215.65,242.98,212.14z M157.86,120.78c-2.21-0.5-4.35-0.83-6.38-1.48c-4.65-1.49-9.27-3.09-13.88-4.72
	c-1.41-0.5-2.78-1.15-4.09-1.87c-2.32-1.28-3.14-3.52-1.49-5.47c4.57-5.4,4.73-11.58,4.26-18.16c-0.36-4.9-0.57-9.69-2.35-14.42
	c-0.79-2.09-0.05-4.93,0.53-7.3c0.77-3.19,2.02-6.26,3.15-9.36c0.24-0.67,0.86-1.2,1.7-2.34c0.48,1.33,0.8,1.87,0.85,2.42
	c0.49,4.86,1.05,9.71,1.27,14.58c0.04,0.89-1.21,2.28-2.18,2.69c-1.99,0.84-2.47,2.12-2.19,4.03c0.39,2.7-0.34,5.66,2.16,7.85
	c0.44,0.38,0.28,1.52,0.28,2.32c0.01,1.87,0.2,3.43,2.75,3.28c0.59-0.03,1.49,0.63,1.81,1.22c4.67,8.41,9.27,16.86,13.87,25.31
	C158.01,119.49,157.92,119.72,157.86,120.78z M236.43,208.8c0.89-0.13,1.85,0.06,2.84,0.55c0.93,0.47,2.14,1.3,2.94,2.61l-0.26-0.38
	c-0.67,0.47-1.36,0.92-2.05,1.37c-0.47-0.68-1.13-1.23-1.93-1.41c-0.55-0.12-1.02-0.03-1.64,0.21l-0.97-2.55
	C235.67,209,236.01,208.86,236.43,208.8z M218.02,221.83c1.24,0,2.48-0.09,3.7-0.25l0.61,2.55c-1.2,0.08-2.42,0.1-3.64,0.07
	l-1.13-2.38C217.7,221.81,217.86,221.83,218.02,221.83z M217.26,221.21l-1.44-3.01c1.84,0.37,3.57,0.51,5.18,0.43l0.56,2.36
	C220.15,221.17,218.71,221.25,217.26,221.21z M236.85,214.83c-1.08,0.64-2.18,1.23-3.28,1.81l-0.98-2.49
	c0.94-0.47,1.96-0.96,3.01-1.44c0.13-0.06,0.25-0.12,0.37-0.17L236.85,214.83z M236.53,212.3c0.55-0.21,0.9-0.27,1.3-0.18
	c0.6,0.13,1.16,0.58,1.56,1.16c-0.67,0.43-1.34,0.83-2.02,1.24L236.53,212.3z M233.05,216.9c-0.44,0.23-0.88,0.46-1.32,0.68
	c-0.85,0.42-1.66,0.79-2.43,1.13l-0.91-2.4c0,0,0,0,0,0l0.68-0.35c0.77-0.4,1.81-0.95,3.01-1.55L233.05,216.9z M228.75,218.94
	c-1.02,0.43-1.96,0.79-2.82,1.07l-0.61-2.25c0.22-0.08,0.44-0.15,0.65-0.24c0.46-0.2,0.99-0.47,1.89-0.93L228.75,218.94z
	 M225.35,220.2c-0.49,0.15-0.95,0.27-1.38,0.37c-0.61,0.14-1.22,0.25-1.83,0.34l-0.54-2.33c1.1-0.1,2.16-0.29,3.15-0.61
	L225.35,220.2z M222.27,221.49c0.61-0.09,1.22-0.2,1.83-0.34c0.44-0.1,0.91-0.23,1.41-0.38l0.78,2.87
	c-1.13,0.19-2.27,0.34-3.42,0.43L222.27,221.49z M226.08,220.6c0.88-0.29,1.84-0.65,2.88-1.09l1.24,3.24
	c-0.27,0.08-0.53,0.16-0.82,0.23c-0.82,0.22-1.66,0.4-2.5,0.56L226.08,220.6z M229.52,219.27c0.79-0.34,1.61-0.72,2.48-1.15
	c0.43-0.21,0.85-0.44,1.27-0.65l1.37,3.52c-1.13,0.61-2.39,1.14-3.86,1.59L229.52,219.27z M233.79,217.2
	c1.1-0.57,2.19-1.17,3.28-1.8l1.12,2.94c-0.16,0.16-0.32,0.32-0.5,0.49c-0.76,0.7-1.59,1.32-2.52,1.87L233.79,217.2z M237.59,215.09
	c0.7-0.42,1.41-0.85,2.1-1.29c0.16,0.34,0.27,0.7,0.31,1.07c0.05,0.52-0.09,1.52-1.36,2.98L237.59,215.09z M232.59,211.12
	c0.74-0.41,1.29-0.84,1.77-1.22c0.17-0.13,0.32-0.25,0.48-0.37l0.93,2.44c-0.13,0.06-0.26,0.12-0.4,0.18
	c-1.05,0.48-2.05,0.97-2.98,1.43l-0.76-1.94C231.96,211.47,232.28,211.29,232.59,211.12z M228.08,213.4
	c1.26-0.6,2.22-1.07,3.03-1.49l0.75,1.93c-1.23,0.62-2.29,1.18-3.07,1.58l-0.61,0.32l-0.78-2.04
	C227.62,213.61,227.85,213.51,228.08,213.4z M226.84,213.92l0.8,2.1c-0.93,0.48-1.46,0.75-1.91,0.95c-0.19,0.08-0.38,0.14-0.57,0.21
	l-0.7-2.58C225.28,214.43,226.07,214.21,226.84,213.92z M223.86,214.73l0.73,2.67c-0.98,0.31-2.02,0.5-3.12,0.59l-0.66-2.83
	C221.92,215.03,222.93,214.9,223.86,214.73z M213.52,213.26c0.2,0,0.32,0.04,0.37,0.09c2.07,1.98,3.89,2.09,6.31,1.87l0.67,2.81
	c-1.62,0.07-3.35-0.08-5.21-0.47l-0.04,0.21l-2.14-4.5C213.49,213.26,213.51,213.26,213.52,213.26z M215.96,226.71
	c-1.31-0.27-4.48-2.47-4.58-4.92c-0.02-0.54,0.11-0.95,0.27-1.44c0.22-0.66,0.46-1.42,0.33-2.62c-0.04-0.37-0.11-0.7-0.19-0.99
	l4.81,10.11C216.39,226.8,216.18,226.75,215.96,226.71z M216.78,226.87l2.59-1.24l-0.4-0.84c0.24,0,0.49,0.02,0.73,0.02
	c0.93,0,1.85-0.03,2.76-0.1l0.68,2.84C220.9,227.57,218.8,227.27,216.78,226.87z M223.68,227.55l-0.67-2.87
	c1.16-0.1,2.3-0.24,3.44-0.44l0.8,2.93C226.02,227.4,224.83,227.51,223.68,227.55z M227.84,227.05l-0.8-2.92
	c0.84-0.16,1.67-0.35,2.49-0.56c0.3-0.08,0.59-0.17,0.88-0.25l1.01,2.66C230.19,226.45,228.99,226.8,227.84,227.05z M231.99,225.76
	l-1-2.61c1.46-0.46,2.73-0.98,3.87-1.59l0.91,2.35C234.46,224.65,233.2,225.27,231.99,225.76z M236.3,223.6l-0.91-2.33
	c1-0.58,1.89-1.24,2.71-2c0.12-0.11,0.22-0.21,0.33-0.31l0.99,2.6C238.34,222.33,237.31,223,236.3,223.6z M241.32,220.12
	c-0.48,0.38-0.94,0.73-1.41,1.07l-1.03-2.71c1.61-1.76,1.78-3.03,1.72-3.68c-0.04-0.44-0.19-0.9-0.41-1.34
	c0.7-0.45,1.39-0.91,2.07-1.39c0.06,0.1,0.12,0.2,0.18,0.31C244.05,215.68,243.67,218.27,241.32,220.12z"/>
</svg>
