<svg xmlns="http://www.w3.org/2000/svg" fill="#FFF" viewBox="0 0 350 1200">
<g>
	<g>
		<g>
			<path class="st0" d="M13.3,1122.3c3.8,9.2,17.5,32.2,36.1,40.9s41.2,5.9,58.4,2c17.2-4,68.2-21.3,97.1-38.2
				c28.9-16.8,52.5-33.4,78.2-57c25.6-23.6,36.9-43.8,40-52.6c3.1-8.9,2.4-15.5-2.5-27.4c-4.8-11.9-13.6-23.4-14-35.5
				s4.2-37.7,2-41.4s-2.9-3.8-2.9-3.8s2.4-9.6,0.8-11.5c0,0-2.7,1.4-11,0.2c-8.3-1.1-11-1.3-12.8-2.2c-1.7-0.9-4.1-1.9-4.7,0.6
				c-0.5,2.4-1.6,10.1-1.6,10.1s-2.7,2.4-3.2,6.3c-0.6,3.9-0.9,22.5-5.4,29.3c-4.5,6.8-11.9,11.2-21.4,17.5
				c-9.5,6.3-17.8,14.4-25.2,21.8c-7.4,7.4-24.5,24-38.1,33.9c-13.7,9.9-37.3,25.4-48.5,31.2c-11.1,5.8-33.6,17.2-51.2,20.7
				s-37.5,5.3-43.9,7.4c-6.4,2-12.8,4.1-20.6,16.3C11.1,1103.1,9.5,1113,13.3,1122.3z M305.6,978l-4.6,5.2l1.6-11c0,0-0.1-1.9,2-2.6
				l1.9,5.4C306.5,975,307,976.4,305.6,978z M297.5,1009.1c0.5-2.6,2.1-14,2.1-14l9.2-9c0,0,2.4-1.5,3.8,0.8
				c1.3,2.3,2.5,6.1-0.8,9.9c-3.2,3.7-13.2,13.1-13.2,13.1S297.1,1011.4,297.5,1009.1z M23.1,1101.6c-2.3,0.9-2.3,0.9-1.8-0.9
				c0,0,1.4-2.3,2.3-1.2S25.3,1100.6,23.1,1101.6z M72.1,1094.6c-3.7,0.4-38.7,3.9-38.7,3.9s-2.9,0.5-4.7-1.7
				c-1.8-2.1-2.5-4.1-2.5-4.1s7.7-11.7,18.6-12.4s21.4-1,21.4-1s4.6-0.7,5.6,2.6s2.8,8.8,2.8,8.8S75.9,1094.2,72.1,1094.6z
				 M37.7,1103l33.9-4.5c0,0,4.8-1.1,6.2,3s3.6,11.7,3.6,11.7s0.9,3-2.6,3.8s-28.3,5.7-28.3,5.7s-2.6,1-4.8-1.9
				c-2.3-2.9-9.4-13.1-9.4-13.1S33.2,1104,37.7,1103z M128.6,1067.4c-0.3,4-0.7,9.7-0.7,9.7s-0.1,3-3.7,4.2
				c-3.7,1.2-23.6,7.7-30.6,9c-7.1,1.3-12.9,3.3-14,1c-1-2.2-3.3-9.3-3.3-9.3s-0.5-2.3,1.2-2.6c0,0,28.6-6.7,38.6-10.3
				C126.1,1065.6,129,1063.4,128.6,1067.4z M135.7,1062c0,0,14.5-6.8,23.3-10.8l6.4-3.1l2.4-1c0,0,2.2-1.3,1.9,1.6
				c-0.3,2.9-1.2,10.7-1.2,10.7s0.2,2.4-2.7,3.7c-2.9,1.2-18.8,9.2-24.7,11.6c-5.9,2.4-9.4,3.8-9.2,1.2c0.1-2.6,0.8-10.6,0.8-10.6
				S132.6,1063,135.7,1062z M171.3,1035.5c-0.2,2.9-0.2,2.8-2.4,4s-18.7,10-26.7,13.5s-9.2,2.8-7.3,1.6c0,0,15.8-8.9,24.8-14.4
				S171.5,1032.5,171.3,1035.5z M185.7,1036.2c7.3-4.5,27.9-18.6,27.9-18.6c3.1-1.8,2.6,0.8,2.6,0.8s-1.6,14.5-2,15.6
				c-0.4,1.1-0.7,1.2-7.8,5.8c-7.1,4.6-26,15.8-29.9,17.8c-3.9,1.9-3.6-1.6-3.6-1.6s0.7-8.3,1.1-10.9S178.3,1040.8,185.7,1036.2z
				 M219,997.2c0,0-1,7.6-1.2,9.4c-0.3,1.7-0.9,2.2-0.9,2.2l-10.8,7.3c-2.4,1.8-24.2,15.6-27.2,17.7c-3,2.2-3.4,0.1-3.3-2.1
				c0.1-2.2,1.6-2.9,5.2-5.7c3.5-2.8,17.9-14.4,26.5-21.5c8.6-7.2,10.3-8.3,10.3-8.3C219,995.3,219,997.2,219,997.2z M262.3,969.2
				c-2.9,2.4-5.6,4.8-19.3,17.2c-13.6,12.4-16.9,14.3-18.8,15.6c-1.9,1.3-1.1-3.1-0.7-6.4c0.3-3.3,0.4-4.8,1.8-7
				c1.4-2.2,6.1-6.6,6.1-6.6c5-4.5,15.3-13.3,21.3-17.2c6.1-3.9,14.1-9.3,14.1-9.3c1-0.5-0.9,9.6-1,10.4
				C265.7,966.8,265.2,966.8,262.3,969.2z M262,995.7c-0.2,2.1-3,4.3-3,4.3s-2.5,2.2-14.9,12.4c-12.3,10.2-17.6,13.2-21.4,16.1
				c-3.8,2.8-2.8-1.9-2.8-1.9l2.1-14.5c0.1-1.1,0-0.7,4-3.7s10.9-8.5,10.9-8.5c9.3-7.5,27.1-23.5,27.1-23.5
				C264.7,976.1,262.2,993.6,262,995.7z M258.8,1024.4c-0.6,2.2-2.5,3.6-2.5,3.6s-7.9,7.3-15,13c-7.1,5.7-18,12.9-21.9,15
				s-2.7-2.6-2.7-2.6s1.6-13.1,1.7-14.1c0.1-1,0.2-1.5,4.7-4.4c4.6-2.9,12.6-8.7,12.6-8.7c9-6.5,24.1-19.3,24.1-19.3
				c1.4-0.7,0.8,1.1,0.8,1.1S259.5,1022.3,258.8,1024.4z M256.8,1050.6c0,0,0,1.9-1.8,3.8c-1.9,1.9-12,11-24.7,19.7
				c-12.7,8.6-13.4,8.8-14.6,9.1s-1.3-0.4-1.1-3.5c0.3-3.2,1.2-12.1,1.2-12.1s0.1-2.5,2.1-3.8s13.1-8.4,22.2-15.3
				c9-6.9,15-11.1,15-11.1s3.3-3.2,2.4,2.8L256.8,1050.6z M214,1093.6c0,0,19.4-13.6,26.3-18.8c6.9-5.2,12.9-9.6,12.9-9.6
				s1.8-1.5,2.3-0.9c0,0,0.4,0,0.1,4.4l-1.3,13.5c0,0-34.3,27.1-40,26.8c0,0-0.7,0-0.8-1.2C213.3,1106.6,214,1093.6,214,1093.6z
				 M212.1,1059.6c0,0-0.1,1.9-2.9,3.5s-25.9,15.3-31,17.7c-5.1,2.4-8.4,4-7.9,0.6s1.7-14.5,1.7-14.5s0-1.7,1-2.2
				c0,0,21.6-12.3,30.1-17.1c8.5-4.9,10.4-6.7,10-3.4C212.7,1047.6,212.1,1059.6,212.1,1059.6z M210,1085.6c0,0,0.5,2.2-2.4,4.1
				c-2.9,1.9-22.5,13.8-29.3,17.4s-10.1,5.5-10.2,2.2l1.3-16.3c0,0,0-2.5,2.5-3.6s14.3-7,22.4-11.6s14-8.1,14-8.1s3.1-2.2,2.7,2.1
				C210.6,1076.1,210,1085.6,210,1085.6z M169.6,1118.5c0,0,11.1-5.3,22.1-11.4l11.7-6.8c0,0,5.8-4.5,5.6-1.3s-0.3,5.1-0.3,5.1
				l-0.8,7.4c0,0-19.9,12.1-28.6,16.4s-11.9,6-11.9,4.3c0-1.6-0.1-10.1-0.1-10.1S167.2,1119.5,169.6,1118.5z M166.3,1084.1
				c0,0,0,2.4-3.9,4.5c-3.9,2.1-28.3,12.1-28.3,12.1s-4.8,2.3-4.7-1.9l1.2-11.8c0,0-0.1-2.9,3.9-4.7c4.1-1.8,29.2-12.5,29.2-12.5
				s4.2-2.3,3.8,1.2C167.1,1074.5,166.3,1084.1,166.3,1084.1z M164.1,1112.2c0,0-0.1,2.2-2.3,3.6c-2.2,1.3-18.5,8.4-24.3,10.5
				c-5.8,2.2-10.7,4.8-10.4,0.9l1.2-16.6c0,0-0.5-2.9,3-4.1c3.5-1.2,30.4-12.3,30.4-12.3s3.9-2.3,3.6,1.6
				C164.9,1099.7,164.1,1112.2,164.1,1112.2z M126.2,1145.9c0.3-3.3,0.4-6.6,0.4-6.6s-0.7-2.5,3.2-3.9c0,0,11.2-3.2,21.8-8.1l9.1-4
				c0,0,3-1.4,2.8,1.7s-0.8,6.5-0.8,6.5l-0.7,3.5c0,0-26.3,11-32.1,12.4C129.9,1147.4,125.9,1149.3,126.2,1145.9z M125.6,1101.1
				c0,0,0.1,2.9-3.5,4.1c-3.6,1.2-31,9.3-31,9.3s-4.2,1.5-5-1.5l-3.4-11.5c0,0-1.8-3.7,2.7-4.5c4.5-0.9,21-5.3,29.1-7.8
				c8.1-2.5,9.4-2.7,9.4-2.7s3.3-1.5,2.9,2.2S125.6,1101.1,125.6,1101.1z M99.1,1145.1c3.5-1,19.7-5.4,19.7-5.4s3.8-1.9,3.8,2
				s-0.2,7.1-2.1,7.8c-1.9,0.7-17.8,5.3-17.8,5.3s-2.9,1.1-3.9-1.4l-1.8-4.7C97,1148.7,95.6,1145.9,99.1,1145.1z M93.2,1136.8
				l-3.8-12.8c0,0-2.1-3.8,2.2-5.1s28.7-8.5,28.7-8.5s4.5-1.6,4.3,2.7c-0.1,4.3-1.1,16.5-1.1,16.5s0.1,2.3-4.5,3.8
				c-4.6,1.4-21.7,5.8-21.7,5.8S94.3,1140.4,93.2,1136.8z M70,1149.9l18-2.7c0,0,3.5-0.8,4.3,1.8c0.8,2.6,4.5,8-1.1,8.8
				c-5.6,0.8-15.3,1.1-17.4,0.8c-2.1-0.3-2.8-1-4.2-3.2C68.2,1153.2,66.6,1150.8,70,1149.9z M61.3,1143.3
				c-1.7-2.5-8.3-12.1-8.3-12.1s-2.7-3.9,1.7-4.9l24.2-4.5c0,0,4.5-1.6,5.8,2.1c1.3,3.6,4.3,14.4,4.3,14.4s1,3-3,3.7
				c-4,0.7-19,2.9-19,2.9S63,1145.9,61.3,1143.3z M51.9,1152.7c0,0,4.7-0.9,6.5-1.2c1.8-0.3,3-0.6,4.2,1.5c1.1,2.1,4.8,5.4-0.8,3.9
				S52.3,1154.1,51.9,1152.7z M32.3,1131.5l9.4-2.4c4.9-1.5,5.7,1,5.7,1s6.6,8.9,8.8,12.5c2.2,3.6-3.2,3.9-3.2,3.9s-6.3,0-9,0
				c-2.8,0.1-4.2-1.7-4.2-1.7s-6.7-7.3-8.8-9.6S32.2,1131.5,32.3,1131.5z M21.2,1106.6c4.1-1.1,7.2-1.2,7.2-1.2s3.5,2,8.5,9.3
				s6.5,8.8,1.6,9.8s-12.8,2.4-13.6,1.5c0,0-5.4-10.4-6.2-12.5C17.9,1111.3,17,1107.6,21.2,1106.6z"/>
		</g>
	</g>
</g>
<polygon class="st0" points="280.8,903.1 295.8,49.5 314.8,49.3 303.8,915 "/>
<path class="st0" d="M294.4,51.5l-3.3-15.6c-0.1-2.9,2.2-5.3,5-5.4l17.6-0.4c2.9-0.1,5.2,2.2,5.3,5.1l-3.1,15.1
	c0.1,2.9-2.2,5.3-5,5.4l-11.2,0.9C296.9,56.7,294.5,54.4,294.4,51.5z"/>
</svg>
