<svg width="21" height="21" viewBox="0 0 21 21" fill="none" xmlns="http://www.w3.org/2000/svg">
	<path d="M10.5,0C4.7,0,0,4.7,0,10.5S4.7,21,10.5,21S21,16.3,21,10.5S16.3,0,10.5,0z M16.4,9.2c0,0.1,0,0.1-0.1,0.1
			c-0.4,0-0.8,0-1.1-0.1c-0.7-0.1-1.3-0.4-1.8-0.8c0,0-0.1-0.1-0.1,0c0,0,0,0.1,0,0.1c0,1.5,0,3,0,4.5c0,1-0.3,2-1,2.8
			c-0.7,0.8-1.7,1.3-2.8,1.5c-0.9,0.1-1.7,0-2.5-0.4c-0.1-0.1-0.2-0.1-0.3-0.2c0,0-0.1-0.1-0.1-0.1c-0.1,0-0.1-0.1-0.2-0.2
			c-0.7-0.5-1.2-1.2-1.5-2.1c-0.1-0.3-0.1-0.6-0.2-0.9c0-0.2,0-0.4,0-0.7c0-0.5,0.2-1,0.4-1.5c0.2-0.5,0.5-0.9,0.9-1.3
			c0.4-0.4,1-0.8,1.5-1c0.4-0.1,0.7-0.2,1.1-0.2c0.3,0,0.6,0,0.8,0c0,0,0.1,0,0.1,0.1v0.5c0,0,0,1.2,0,1.7V11c0,0.1,0,0.1-0.1,0.1
			c-0.1,0-0.3-0.1-0.5-0.1c-0.2,0-0.5,0-0.7,0.1C7.5,11.4,7,11.9,7,12.7c-0.1,0.8,0.2,1.4,0.9,1.8c0.1,0,0.1,0.1,0.2,0.1
			c0,0,0,0,0,0c0.1,0.1,0.3,0.1,0.5,0.2c0.5,0.1,1,0,1.4-0.2c0.5-0.3,0.8-0.8,0.9-1.3c0-0.1,0-0.2,0-0.3c0-3,0-6,0-9.1
			c0-0.1,0-0.1,0.1-0.1h2.1c0.1,0,0.1,0,0.1,0.1c0,0.2,0.1,0.5,0.1,0.6c0.3,1.5,2.1,2.5,2.6,2.5c0.2,0,0.3,0,0.5,0
			c0.1,0,0.1,0,0.1,0.1C16.4,7.2,16.4,8.6,16.4,9.2z" fill="white"/>
</svg>
